<svg id="Camada_1" data-name="Camada 1" xmlns="http://www.w3.org/2000/svg" viewBox="0 0 242.05 268"><defs><style>.cls-1{fill:#eccd96;}.cls-2{fill:#ec9a61;}.cls-3{fill:#eb8c0e;}.cls-4{fill:#fcfcfc;}.cls-5{fill:#fff;}.cls-6{fill:#ffa1a1;}.cls-7{fill:#ffeee2;}.cls-8{fill:#a24f5f;}.cls-9{fill:#e2670e;}.cls-10{fill:#ff8897;}</style></defs><path class="cls-1" d="M95.21,86.92,87,186.36s12,75.39,15.76,79.7,54.45,20.19,81.25,11.26,26.73-9.3,27.76-22.52,6.78-19.05,6.78-19.05l18.07-25.93,17.48-44.6-9.23-66.37-31.37-37-58-4.46S95.81,81.17,95.21,86.92Z" transform="translate(-26.09 -12)"/><polygon class="cls-2" points="183.88 60.95 170.32 54.59 124.94 60.66 116.23 64.74 92.21 73.23 75.03 75.64 74.96 81.22 87.88 98.34 97.85 105.09 90.2 106.43 95.26 110.98 149.23 82.82 183.88 60.95"/><path class="cls-2" d="M126,135l13.17-13.81s29,13.5,29.92,2.4-36.22-7.72-36.22-7.72l-20.52,17.51Z" transform="translate(-26.09 -12)"/><path class="cls-2" d="M215.31,102.27s8.71,4.17,4.06,3.74,20.1,15.66,21.63,30,2.65,47.43,2.65,47.43,8-24.6,3.95-40.29-9.68-34.51-9.68-34.51l-14.4-28.07Z" transform="translate(-26.09 -12)"/><path class="cls-2" d="M131.21,215.12s5.09,28.36,22.47,30.39,34.32,11.6,15.42,18.23-52.91,8.12-52.91,8.12l-13.48-5.8,2.83-85S131.07,182.7,131.21,215.12Z" transform="translate(-26.09 -12)"/><path class="cls-2" d="M175.87,123s5.7,10.41,10.86,4.92,10.76,3.72,15.41,1.6,9-6.77,8.33-9.41,4.19-5.32,1.25-6-1.75-4.35-1.75-4.35,7.59,3.15,4.69,10.87-3.95,11-3.95,11l-3,3.39-14.94-1.39-4-2.46s-4.41,4.81-7.61,3.5S173.74,129.56,175.87,123Z" transform="translate(-26.09 -12)"/><path class="cls-2" d="M207.5,138.41s-5.37,24.91,5.9,28.8S207.5,138.41,207.5,138.41Z" transform="translate(-26.09 -12)"/><path class="cls-2" d="M186.73,207.38s32.13-4.91,35.52-8.68S220.28,209.91,186.73,207.38Z" transform="translate(-26.09 -12)"/><path class="cls-2" d="M155.93,132.59s-10.41,1.91-6.08,6.31,12.65,1.37,15.94-5.06S160.65,131.81,155.93,132.59Z" transform="translate(-26.09 -12)"/><path class="cls-2" d="M177.51,101.12s24.26,2.21,28.76,4.33,12.83-2.62,7.67-8.69-27.21-7.21-27.21-7.21S171.05,91.69,177.51,101.12Z" transform="translate(-26.09 -12)"/><path class="cls-3" d="M62.56,89.55,34.27,118.43l8.73-.07s-14.11,11.77-15.24,24.56a66.73,66.73,0,0,1,8.6-4.81L30,150.94l-2.19,16.27,1.44,26.93,3-11.17,3.3-4.64h1.65l-.41,17.17s4.06,17.42,6.9,23.06,5.25,10.51,5.25,10.51l1.57-.15s1.56-10.59,2.26-9.14S63.1,243,68.19,247.48s8,7.32,8,7.32,1.21-16.67,2.12-14.2,6.17,13.44,11,15.89,8.68,2.09,9.23,3.77,4.17,5.8,4.17,5.8l1.48-10.25,5-14.9,2.93,12,3.47-5.45s6.07-7.85,6.68-11.09,2-15.89,2-15.89l3-20.37,3.12,7.92.71,7.07a34.41,34.41,0,0,0,3.75-8.75c.85-4,1.42-18.13-.85-23s-6.73-31.08-6.73-31.08l8.76,9.27a29.63,29.63,0,0,0,0-5.59c-.33-2.26-3.71-7.92-3.71-7.92l-2.21-9.17-5.49-10.65-7.25-9.6,6.46-1.56-1.07-2-6.68-3L106,101l-4.92-7.77.07-5.58-8.29-1.8-7.9,3L73.2,90.35Z" transform="translate(-26.09 -12)"/><path d="M121.16,123l4.83-6.71,4.63-2.1L124.73,113l-2.54.46,3.7-3.37,16.52-3.68,21-8.58,18.65-8.71L210,73l30.44-14.51-3,5.11-6.53,7.34L222,88.15l-6.73,14.12s-13.48-2.64-17-5.12a48,48,0,0,0-8.57-4.52l-6.69,1.48L179,98l-1.48,3.15-.83,4.73-2.92,7.88-4.68,9.9-6.44-.33L140.21,119l-5.42-2.06-6.58,6-3.48,5.35Z" transform="translate(-26.09 -12)"/><polygon class="cls-4" points="118.63 108.2 119.75 99.94 125.55 102.93 129.38 90.26 136.55 86.85 133.69 97.52 130.06 105.99 128.28 107.21 127.06 105.56 124.94 109.23 118.63 108.2"/><polygon class="cls-5" points="174.51 85.56 179.59 72.96 183.29 78.86 189.59 58.08 194.35 55.76 193.29 60.42 188.29 78.29 184.57 87.1 181.67 81.55 180.18 84.84 179.82 88.75 174.51 85.56"/><path class="cls-3" d="M149.93,74.27S137.52,84,136.42,85.36a6.75,6.75,0,0,1-3.56,1.77s10.06,3,14.7.82,16.92-9,16.92-9l3.16-.49-5,9.64-6,8.67S169,94.69,172.52,91.2s10-12.26,10-12.26L186,70.47l-.74,16.76s7.26-6,6.95-6.71,3.51-8.89,3.51-8.89l.68-5,12.69,5.22,2.62-.18,11.16-5L206.27,53.72l6.88-2.6,27.46-5.79s-4.87-5.13-8.92-5.19-21.72,0-21.72,0l-7-1.28-19,10.77-13,7.74L166,60.92,151,72.66Z" transform="translate(-26.09 -12)"/><path class="cls-3" d="M232.68,70l12.14,5.52L240,78.41l5.91,2.11,4.42,3.73,4.3,5.42.22,1.53L251,89.5l-9.58-.42,4.13,6.3,8.54,6.31,4.7,6.51,5.32,6.84,2.28,4.73,1.18,6.44v5.18L262,127.31l-5.14-4,1.73,5,4.57,10.65,1.61,8,.39,5.93.09,5,0,16.08-2.48-4.07-1.12,9.81-8.17,30.84-2.25,4.92s-2.39-16.41-3.58-12-4.17,17.73-4.17,17.73L233,238.76V213l9.52-26,5-15.88V158.2l.57-9.35-5.57-27.62L237,105.85,230,91.41l-4.34-8,2.18-7S230.77,69.24,232.68,70Z" transform="translate(-26.09 -12)"/><path class="cls-6" d="M62.56,89.55s.29-40.31,11.21-52.84,28.45-20.47,28.45-20.47S117.71,9.61,132,12.93a191.64,191.64,0,0,1,22.42,6.41l18.48,11s10.41,11.34,9.26,11S173,44,173,44l-10.4,2.69-5.24,1.7-2.62,2.81L151,54s-3.86,2.49-6.31,2.71-8.44,3.22-8.44,3.22l-14.93,8.78L94,85.12l-1.24-.87-7.86,4.57s-10.23,1-13.18,1.42S62.56,89.55,62.56,89.55Z" transform="translate(-26.09 -12)"/><path class="cls-7" d="M94.1,86.31a55.24,55.24,0,0,0,21-.86c11.33-2.7,37.3-13.82,37.3-13.82l10.29-8.07,8.27-6.19,17-10,18-10s4.43-1.66,5.15-1.44,5-3.62,5-3.62l-37.73,10.1s-17.84,4.95-18.48,5.3S146.24,55,146.24,55l-8,4-16.06,8.81L94,85.12Z" transform="translate(-26.09 -12)"/><path class="cls-8" d="M203.57,39.71s26.21-.5,28.12.43,9,3.82,9,3.82l0,1.37-21.24,4.48-12.5,3.68,5.49,4.95,9.32,8.43,16.23-7.29,7-13.67s.91-5.81-.72-8.31-7.75-6.67-7.75-6.67L230,29.85h-3.6s-4.32.74-7,1.51S212.63,35,212.63,35l-9.06,2.86S202.33,38.36,203.57,39.71Z" transform="translate(-26.09 -12)"/><path d="M127.38,35.1l2.18-5.25,1.79,1.28,3.09,4.47,6.83,6.45s2,3.13,0,4.05-4,5.88,2,3.89A72.84,72.84,0,0,0,155,44.65l3.06-4.5-1.91-2.07s-5,1-7.44.51-8.1-6.34-8.1-6.34L129.74,20.57s-6.78,6-7.55,9.28S124.4,38.08,127.38,35.1Z" transform="translate(-26.09 -12)"/><path class="cls-9" d="M55.74,108.59s-14,8.22-14.34,5.58S64.64,90,66.23,90.35l-3.67-.8L50.24,100.87,39.88,111.46,33.62,119l10.17-1Z" transform="translate(-26.09 -12)"/><path class="cls-9" d="M55.74,110S34,133.74,36.49,134.55s.65,2.85.65,2.85l-3.52,2.07-6.83,3.63s2.64-11.66,5.46-13.67,5.12-6.45,7.44-8.2,16.05-12.64,16.05-12.64S57.57,108.54,55.74,110Z" transform="translate(-26.09 -12)"/><path class="cls-9" d="M100.62,90.35s-6.44-2.94-9.2-.8-27.17,7.34-28.86,6.23-7.77,2.76-7.77,2.76l9.07-8.71,10.85.52,10.22-1.53L92,85.23l9.13,2.41Z" transform="translate(-26.09 -12)"/><path class="cls-9" d="M59.68,94.82s34.94,1.83,37.92,5.8,13.06,9,9,8-5.49,1.45-5.49,1.45,12.11,4.6,15.21,7.52S123.6,130.75,126,135s3.73,11.36,2.06,10.31-3.79-.93-6.7-6.45-7.83-7.15-7.35-3.86-5.41.91-6.44-3.85-2.92-14.17-6.44-10-10.77,2.82-8.64-1.45S86,112.41,75.4,118.43s-11.54,6.65-11.54,6.65a12.16,12.16,0,0,1,5-12.55c7-5-5-7.87-5-7.87s-9-.07-10.93,1.92,2.1-6.52,6.51-7.73S59.68,94.82,59.68,94.82Z" transform="translate(-26.09 -12)"/><path class="cls-9" d="M38.94,165.22s-3.91,8.3-6.38,5.6S30,153.45,30,153.45l-2.19,24.88,1.44,15.81,3.53-12.56,4.42-3.25Z" transform="translate(-26.09 -12)"/><path class="cls-9" d="M37.33,198s5.34,16.75,9,14.8,4.56.16,4.56.16l-.41,16s-7.36-8.17-7.91-12.64S35.63,199,37.33,198Z" transform="translate(-26.09 -12)"/><path class="cls-9" d="M48.89,198s15,43.63,19.92,41.65,6-8.55,6-8.55L76.2,254.8S63.3,243.26,59.1,234,45.85,204.94,48.89,198Z" transform="translate(-26.09 -12)"/><path class="cls-9" d="M73.61,216.28s8,26.65,10.53,27,3.55-5.53,3.55-5.53L94,248.32l4,10.84s-7.65,3.08-18-14.69S73.61,216.28,73.61,216.28Z" transform="translate(-26.09 -12)"/><path class="cls-9" d="M82,208.05s1.29,20.26,3.47,17,3.82-11.58,3.82-11.58S94.86,247,99.7,245.77s8.32-8,8.32-8l-.51-21.3s-4.06,23.87-9,15.53-6.15-23.79-8-24-4.25,10.38-5,7.07S82.32,205.28,82,208.05Z" transform="translate(-26.09 -12)"/><path class="cls-9" d="M110.5,221.73c2,7,6,13.89,5,16.87s5.45,1.07,5.7-15.84,2.9-24.06,2.9-24.06-6.06-11.2-1.87-11,9.24,7.78,9.2,11,3-5,0-12.34-6.32-16.1-6.66-21.14,1.21-9.33-2.54-9.17-6,7.59-2.87,14.3,6.45,8.81,2.29,10.24-8.13,2.42-7.14,7.39,4.29,24.11,2.15,25.46-4.14-6.17-8.6-5.39-7.13,1.25-5.8,4,12,.49,10.12,3.1S110.5,221.73,110.5,221.73Z" transform="translate(-26.09 -12)"/><path class="cls-9" d="M135.62,87.23s23.57-11.84,27-15.6,14-9.86,18.15-14.26,25.93-11.9,30.93-11.62,14.41.7,12.68,0-18.13,7.33-18.13,7.33l34.34-7.74s-3.88-5.13-8.92-5.19l-30.25-.43-11.53,6.53-10.39,5.93-10.37,6.25-5.68,5L151,72.66l-5.61,6.28-12.56,8.19Z" transform="translate(-26.09 -12)"/><path class="cls-9" d="M177.51,60.28s30.24-3.19,31.25,3.19S200.59,70,200.59,70l11.13,1.65,10-4.76-15.41-13.8,16-3.87,3.36-6.55-29.18,3.1S174,57.66,177.51,60.28Z" transform="translate(-26.09 -12)"/><path class="cls-9" d="M244.82,75.56S233,79.89,234.29,83.8s3,20.65,9.07,22.21,11.85,9,12.95,10.26-11-3.29-8.93,1,6.28,14,6.67,19.06-1.09,31.54-2.83,36.16S236.09,212,239.31,215.36s6.87-3.28,6.87-3.28l-4.74,13.53L233,238.76l.61-27.43L242.53,187s5-12.55,5-17.19.6-17,.6-17l-2.58-20.15-5.18-18.16-5.59-13.75-6.56-12.59-2.57-4.72,5.25-12.55,1.82-.85S244.14,76.31,244.82,75.56Z" transform="translate(-26.09 -12)"/><path class="cls-10" d="M109.22,14S87.67,69.69,108,64.31,157.4,48.43,157.4,48.43l-5.5,5-12.73,5.22-17,9.12L92,85.23s-3.37,2.69-10.79,4.08-18.64.24-18.64.24-.3-25.45,4-36.48,6.62-17,13.38-22.43S106.94,13.65,109.22,14Z" transform="translate(-26.09 -12)"/><path d="M220.21,76.93a145,145,0,0,1,26.27,64.16c1,7.08,1.93,14.52.41,21.6-.11.47.62.67.72.2,1.34-6.23.79-12.65,0-18.92a144.79,144.79,0,0,0-26.76-67.42c-.28-.38-.94,0-.65.38Z" transform="translate(-26.09 -12)"/><path d="M247.07,162.24c.62,6.76-.95,13.4-3.06,19.79s-4.59,12.93-6.92,19.37c-2.1,5.8-4.13,11.68-7.25,17a71.23,71.23,0,0,1-5.69,7.9,61.48,61.48,0,0,0-4.25,6.38c-2.75,4.61-5.7,9.94-11.24,11.47a.37.37,0,0,0,.2.72c4.66-1.28,7.61-5.17,10-9.1,1.35-2.17,2.59-4.42,4-6.54,1.8-2.66,4-5,5.8-7.68,3.57-5.16,5.84-11.06,8-16.92,2.44-6.72,4.92-13.42,7.26-20.18,2.48-7.15,4.55-14.6,3.85-22.24,0-.48-.79-.48-.75,0Z" transform="translate(-26.09 -12)"/><path d="M149.67,74a48.09,48.09,0,0,1-17,12.8.38.38,0,0,0,.09.69c6.28,1.08,13.15,2.21,19.2-.44,5.34-2.33,9.45-8.23,15.68-8.22l-.33-.57A86.45,86.45,0,0,1,156.39,96.5a.38.38,0,0,0,.26.64c7.22.08,14.07-3.26,19.14-8.28,5.47-5.41,8.85-12.53,11.07-19.81l-.74-.1A100.74,100.74,0,0,1,184,89.29c-.06.28.27.64.55.42a31.37,31.37,0,0,0,12.21-23.12l-.47.36c5.71,2.35,11.52,4.54,17.13,7.14,4.66,2.17,9.22,5,11.84,9.54.15.25.64.24.69-.09.45-3.26.9-6.6.26-9.87a15,15,0,0,0-4.82-8c-2.67-2.51-5.65-4.73-8.49-7l-9.57-7.79c-.37-.3-.91.22-.53.53,5.61,4.56,11.35,9,16.83,13.73,2.45,2.11,4.72,4.53,5.61,7.72,1,3.42.47,7,0,10.5l.68-.09c-2.62-4.57-7.11-7.44-11.77-9.64-5.76-2.72-11.77-5-17.65-7.38-.24-.1-.47.14-.48.36a30.52,30.52,0,0,1-11.84,22.47l.55.43A101.22,101.22,0,0,0,186.87,69a.37.37,0,0,0-.73-.09c-2.15,7-5.38,13.9-10.59,19.19-5,5-11.73,8.42-18.9,8.34l.27.64a87.32,87.32,0,0,0,11-18.39.38.38,0,0,0-.32-.56c-5.75,0-9.69,4.8-14.33,7.45-6.2,3.56-13.65,2.39-20.35,1.23l.09.69A48.74,48.74,0,0,0,150.2,74.53c.31-.37-.22-.9-.53-.53Z" transform="translate(-26.09 -12)"/><path d="M203.57,40.26c6.57-.1,13.17-.29,19.75-.16A44.49,44.49,0,0,1,232,41a24.43,24.43,0,0,1,3.85,1.17c1.15.47,4.36,1.67,4.37,3.17l.28-.36a188.48,188.48,0,0,0-33.24,7.74c-.46.15-.26.88.2.73a188.51,188.51,0,0,1,33.24-7.75.37.37,0,0,0,.27-.36c0-1.21-1-1.84-1.95-2.41a20.62,20.62,0,0,0-4.1-1.9,34,34,0,0,0-9.12-1.57c-7.39-.41-14.86-.05-22.24.06a.38.38,0,0,0,0,.75Z" transform="translate(-26.09 -12)"/><path d="M93,86.19l31.36-18.82c5-3,9.91-6.34,15.33-8.48,4.78-1.89,9.79-3,13.92-6.2,2.18-1.71,4.19-3.53,6.74-4.68a54.63,54.63,0,0,1,8.12-2.55l17.47-4.72L203.64,36c5.73-1.54,11.44-3.24,17.23-4.57s12.88-2.2,18.25,1.33c4.22,2.77,7.33,8.05,5.39,13.09-.18.45.55.65.72.2,1.52-3.95.1-8.16-2.6-11.23-3.18-3.6-7.67-5.18-12.39-5.3-6-.15-11.78,1.71-17.46,3.24l-18.44,5-18.19,4.9-9.34,2.52a40.18,40.18,0,0,0-7.63,2.61c-2.53,1.27-4.49,3.26-6.75,4.9a28.43,28.43,0,0,1-7.65,3.68,76.25,76.25,0,0,0-7.48,2.78,83.57,83.57,0,0,0-7.81,4.31L92.6,85.54c-.41.25,0,.9.38.65Z" transform="translate(-26.09 -12)"/><path d="M244.46,46.14A57.91,57.91,0,0,1,238,58.06c-2.42,3.66-4.83,7.39-8.27,10.18-.38.3.16.83.53.53,3.49-2.83,5.93-6.62,8.38-10.33a58.45,58.45,0,0,0,6.58-12.11c.17-.45-.56-.65-.72-.19Z" transform="translate(-26.09 -12)"/><path d="M92.73,86.2a24.78,24.78,0,0,0,7.7,1.56,39.38,39.38,0,0,0,7.88-.8c5.38-.9,10.85-1.57,16-3.28s10.37-3.59,15.48-5.55a84.76,84.76,0,0,0,13.88-6.59,62.61,62.61,0,0,0,13.19-11.05c.33-.35-.2-.88-.53-.53a63.3,63.3,0,0,1-11.52,10,75.26,75.26,0,0,1-13.75,6.9c-4.79,1.9-9.67,3.58-14.53,5.3a90.36,90.36,0,0,1-15.4,3.59A70.78,70.78,0,0,1,102,87a23.81,23.81,0,0,1-9.11-1.54c-.45-.16-.65.56-.2.73Z" transform="translate(-26.09 -12)"/><path d="M167.19,60.26c6.76-4.58,13.88-8.57,21-12.6l10.89-6.17c1.73-1,3.45-2,5.2-2.94a19.43,19.43,0,0,1,5.6-2,12.36,12.36,0,0,0,4.57-2.1c1.58-1.08,3.11-2.23,5-2.54.48-.07.28-.8-.2-.72-3.23.52-5.32,3.31-8.34,4.32-1.7.57-3.45.69-5.11,1.42s-3.5,1.85-5.22,2.82c-7.27,4.12-14.57,8.19-21.8,12.4-4.07,2.37-8.09,4.82-12,7.47-.4.27,0,.92.38.64Z" transform="translate(-26.09 -12)"/><path d="M221.85,64.63l12.22,6.58c2,1.09,4,2.2,6,3.24a10.36,10.36,0,0,0,5.26,1.47l-.19-.7a55.4,55.4,0,0,1-6.53,3.4c-.44.19-.06.84.38.64a57.71,57.71,0,0,0,6.53-3.39.38.38,0,0,0-.19-.7c-2.22.11-4.12-1-6-2l-5.71-3.07L222.23,64c-.43-.23-.81.42-.38.64Z" transform="translate(-26.09 -12)"/><path d="M227,76.88c5.47-.46,10.74,1.08,15.83,2.92,1.2.44,2.45.83,3.61,1.36a7.37,7.37,0,0,1,2.69,2.27l2.58,3.2c.8,1,3.16,3.06,2.72,4.47l.62-.16a9.48,9.48,0,0,0-6-2c-2.79-.14-5.56,0-8.34-.29-5.57-.65-11.23-3-14.12-8.07A.38.38,0,0,0,226,81c2.51,4.4,7.13,7,12,8a39.22,39.22,0,0,0,8.45.71c2.78,0,5.86-.12,8.1,1.81a.39.39,0,0,0,.63-.17,2.65,2.65,0,0,0-.76-2.53c-1.06-1.35-2.15-2.67-3.23-4a23.84,23.84,0,0,0-2.81-3.28,9.7,9.7,0,0,0-3.12-1.59c-5.84-2.18-11.9-4.29-18.23-3.76-.47,0-.48.79,0,.75Z" transform="translate(-26.09 -12)"/><path d="M181.43,40a28,28,0,0,0-8.66-10.16A88.75,88.75,0,0,0,160.4,21.9a79.58,79.58,0,0,0-27.82-9.28,57.79,57.79,0,0,0-16.35.31c-.47.08-.27.8.2.72C135.53,10.51,155,18,170.43,29c4.22,3,8.15,6.57,10.35,11.35.2.43.85.05.65-.38Z" transform="translate(-26.09 -12)"/><path d="M116.19,12.8A38.13,38.13,0,0,0,97.1,18.5c-3,1.81-5.86,3.87-8.71,5.91s-5.78,4.05-8.6,6.17a31.86,31.86,0,0,0-6.61,6.3,36.57,36.57,0,0,0-4.49,8.75,96.63,96.63,0,0,0-5.37,20.06,97.77,97.77,0,0,0-.78,23.62c0,.47.79.48.75,0a97,97,0,0,1,4.86-40,55.7,55.7,0,0,1,4-9.45,25.89,25.89,0,0,1,6.24-7.23c2.57-2.11,5.34-4,8-5.9s5.51-4,8.35-5.86c6.5-4.31,13.51-7.18,21.4-7.31a.38.38,0,0,0,0-.75Z" transform="translate(-26.09 -12)"/><path d="M62.56,89.92C73.09,91,85.12,92,93.61,84.36c.36-.32-.17-.85-.53-.53-8.32,7.49-20.22,6.44-30.52,5.34-.48,0-.47.7,0,.75Z" transform="translate(-26.09 -12)"/><path d="M63.67,89.22c-6.19,4-11.43,9.14-16.64,14.27a85,85,0,0,0-7.75,8.13c-2.13,2.77-4,5.83-6.91,7.83a.38.38,0,0,0,.29.69l10.44-1.42c.48-.06.27-.78-.2-.72l-10.44,1.42.29.68c2.6-1.77,4.39-4.32,6.23-6.82a72.91,72.91,0,0,1,7.9-8.58C52.27,99.38,57.65,94,64.05,89.87c.41-.26,0-.91-.38-.65Z" transform="translate(-26.09 -12)"/><path d="M55.48,108.32l-11.35,8.92c-3.32,2.61-6.72,5.13-9.47,8.36a37,37,0,0,0-8.57,19.75c-.05.42.65.51.74.1.91-4.42,6.87-4.56,9.8-7.08.36-.31-.17-.84-.53-.53-3.08,2.65-9,2.67-10,7.41l.74.1A36.15,36.15,0,0,1,36,125.23a75.28,75.28,0,0,1,9.46-8.08L56,108.85c.38-.3-.16-.82-.53-.53Z" transform="translate(-26.09 -12)"/><path d="M42.75,130.92a51.77,51.77,0,0,0-8.25,9.55,40.2,40.2,0,0,0-4.56,11.37,102.07,102.07,0,0,0-2.52,26.83,119.65,119.65,0,0,0,1.42,15.57c.07.47.8.27.72-.2a118.45,118.45,0,0,1-1.09-27.26c.63-8.22,1.79-16.9,5.72-24.27,2.29-4.28,5.65-7.69,9.09-11.06.35-.33-.18-.86-.53-.53Z" transform="translate(-26.09 -12)"/><path d="M30.33,194.39a44.64,44.64,0,0,1,1.53-9c.66-2.39,1.4-5.52,3.83-6.71.43-.21.05-.85-.38-.64-2.46,1.2-3.3,4.14-4,6.57a45.44,45.44,0,0,0-1.72,9.81c0,.49.72.48.75,0Z" transform="translate(-26.09 -12)"/><path d="M38.58,165.12C37.37,173,36.16,181,36.12,189a60.42,60.42,0,0,0,4.17,23A130.5,130.5,0,0,0,46,224.05c.22.43.87,0,.64-.38-4.66-9-8.69-18.11-9.53-28.33-.84-10.05.68-20.11,2.2-30,.08-.47-.65-.67-.72-.2Z" transform="translate(-26.09 -12)"/><path d="M46.56,224.53a12.88,12.88,0,0,0,1.84,3.87c.58.79,2,1.63,2.62.44a3.46,3.46,0,0,0,.22-1.72v-7.34a.38.38,0,0,0-.75,0q0,3.85,0,7.69c0,.4.06,1.29-.55,1.21s-.9-.65-1.15-1a13,13,0,0,1-1.51-3.31.37.37,0,0,0-.72.2Z" transform="translate(-26.09 -12)"/><path d="M48.37,198.7c-.54,4.48.4,8.92,1.54,13.24a97.08,97.08,0,0,0,4,12.07A92,92,0,0,0,66,245.41a45.75,45.75,0,0,0,9.58,9.47c.39.28.77-.37.38-.65-6.5-4.63-11.25-11.28-15.24-18.1a97.31,97.31,0,0,1-9.65-22.67c-1.35-4.78-2.58-9.76-2-14.76.05-.48-.7-.48-.75,0Z" transform="translate(-26.09 -12)"/><path d="M76.57,254.8a74.29,74.29,0,0,0-.7-14.75c-.07-.47-.79-.27-.72.2a73,73,0,0,1,.67,14.55c0,.48.73.48.75,0Z" transform="translate(-26.09 -12)"/><path d="M73.25,216.18c-1,4.44-.44,9,.76,13.31a88.12,88.12,0,0,0,4.64,12.8c3.13,6.94,8.27,15.75,16.46,17.24.48.08.68-.64.2-.73-8-1.45-13-10.11-16-16.89A88.5,88.5,0,0,1,74.92,230c-1.27-4.42-2-9-1-13.58.11-.47-.61-.67-.72-.2Z" transform="translate(-26.09 -12)"/><path d="M80.1,208.05c-.6,6.14-1.18,12.59.73,18.57a27.57,27.57,0,0,0,4,7.46c1.75,2.48,3.52,5,4.11,8,.09.47.81.27.72-.2-1.1-5.73-6.13-9.63-8-15.07-2.05-6-1.43-12.57-.83-18.77,0-.48-.71-.48-.75,0Z" transform="translate(-26.09 -12)"/><path d="M88.68,215.14c.77,7.6-1,15.34.56,22.87.79,3.75,2.78,6.87,4.38,10.29,1.43,3,2.3,6.32,3.48,9.46a20.76,20.76,0,0,0,5.35,8.57.38.38,0,0,0,.64-.27,34.6,34.6,0,0,1,2.25-12.41c.68-1.82,1.45-3.61,2-5.49a29.57,29.57,0,0,0,.86-5.54,166,166,0,0,0-.27-26.1c0-.48-.79-.48-.75,0a164.82,164.82,0,0,1,.27,26.1,28.36,28.36,0,0,1-1.08,6.2c-.57,1.86-1.36,3.64-2,5.47a34.67,34.67,0,0,0-2,11.77l.64-.26c-3.14-2.77-4.66-6.67-6-10.54-.64-1.9-1.25-3.81-2-5.67s-1.85-3.85-2.82-5.76c-2.31-4.52-2.92-9.26-2.84-14.28.08-4.81.58-9.61.1-14.41-.05-.47-.8-.48-.75,0Z" transform="translate(-26.09 -12)"/><path d="M108.86,241a93.6,93.6,0,0,0,2.93,12c.09.28.55.41.69.09a20,20,0,0,1,3-5c1.22-1.46,2.58-2.79,3.68-4.35a26.88,26.88,0,0,0,4-9.5c1.81-7.77,1.07-15.83,2.34-23.67.68-4.16,3-8.55,1.86-12.8a.38.38,0,0,0-.73.2c1,3.94-1.11,8.08-1.77,11.93a91.36,91.36,0,0,0-1,11.45c-.35,7.27-.83,15-4.92,21.34a57.36,57.36,0,0,1-4.16,5,20.47,20.47,0,0,0-3,4.93l.68.09a93.6,93.6,0,0,1-2.93-12c-.08-.47-.81-.27-.72.2Z" transform="translate(-26.09 -12)"/><path d="M123.79,193.34a86.74,86.74,0,0,1,4.57,10.35q.91,2.48,1.66,5c.61,2,1.28,4.15.83,6.3-.1.47.62.67.72.2a11.55,11.55,0,0,0-.48-5.53c-.55-2-1.18-3.9-1.87-5.82A88.81,88.81,0,0,0,124.44,193c-.22-.43-.87-.05-.65.38Z" transform="translate(-26.09 -12)"/><path d="M131.5,216c4.69-7.12,5.11-16,3.94-24.22-.72-5-2-10-3.12-14.95-1.07-4.74-1.71-9.48-2.32-14.3-.55-4.26-1.46-8.55-4.35-11.88-.32-.37-.85.17-.53.53,2.75,3.16,3.61,7.31,4.13,11.35.54,4.25,1,8.45,1.94,12.64,1.91,8.87,4.61,17.76,4,26.94a28,28,0,0,1-4.3,13.51c-.27.41.38.78.65.38Z" transform="translate(-26.09 -12)"/><path d="M116.92,137.71c.78,4.57,3.87,8.15,6.94,11.42,4,4.25,8,8.48,12,12.72a.38.38,0,0,0,.63-.17,15.42,15.42,0,0,0-2.38-11.32,17.33,17.33,0,0,1-2.35-6.69,30.57,30.57,0,0,0-1.7-6.25,61.82,61.82,0,0,0-6.4-11.42c-2.34-3.51-4.64-6.87-8.13-9.35-4-2.83-8.32-5.8-13.22-6.68-.47-.08-.67.64-.2.73,4.16.74,7.71,3,11.18,5.33a27.58,27.58,0,0,1,5.29,4.27,46.05,46.05,0,0,1,3.83,5.17,77,77,0,0,1,6.21,10.46,29.31,29.31,0,0,1,2.1,6.21,34.56,34.56,0,0,0,1.34,6c.85,2.07,2.35,3.78,3.13,5.88a13.86,13.86,0,0,1,.58,7.44l.62-.17L125,149.22c-3.19-3.38-6.53-7-7.33-11.71-.09-.47-.81-.27-.73.2Z" transform="translate(-26.09 -12)"/><path d="M100.76,87.54c-1.21,3.41,0,6.94,1.9,9.83,2.31,3.46,5.29,6.53,8,9.7a39.33,39.33,0,0,0,4,4.39,12.85,12.85,0,0,0,4.15,2.24c.88.32,1.77.61,2.62,1a7.83,7.83,0,0,1,1.31.76l.52.42c.43.84.32,1.26-.31,1.25a5.17,5.17,0,0,1-1.44.2l-1.91.26-3.36.47c-.47.06-.27.78.2.72l3.6-.5a21.17,21.17,0,0,0,3.47-.49c1.09-.34,1.2-1.35.53-2.19-1-1.22-2.7-1.79-4.12-2.31a13.87,13.87,0,0,1-5.48-3.08c-3.13-3.13-5.87-6.77-8.71-10.17s-5.83-7.66-4.19-12.31c.16-.45-.56-.65-.72-.2Z" transform="translate(-26.09 -12)"/><path d="M240,89a33.35,33.35,0,0,0,8.29,9.34c1.66,1.27,3.53,2.2,5.21,3.44,1.91,1.41,2.77,3.59,4.09,5.5,2.43,3.53,5.69,6.5,7.53,10.42,2.11,4.48,2.18,9.57,2.26,14.42l.74-.1c-.67-2.76-4.24-3.85-6.35-5.27a37.86,37.86,0,0,1-8.19-7.49c-.3-.37-.83.16-.53.53a38.75,38.75,0,0,0,7,6.64,40.79,40.79,0,0,0,4.1,2.63c1.35.75,2.89,1.53,3.28,3.16a.38.38,0,0,0,.74-.1,49.61,49.61,0,0,0-1-10.81,22.84,22.84,0,0,0-4.54-8.87c-1.09-1.38-2.25-2.7-3.32-4.1s-2-3-3-4.54c-1.85-2.94-5.18-4.16-7.82-6.24a32.52,32.52,0,0,1-7.87-8.94A.37.37,0,0,0,240,89Z" transform="translate(-26.09 -12)"/><path d="M255.48,123.27a109.81,109.81,0,0,1,5.91,11.78,44.36,44.36,0,0,1,3.11,12.73c.41,4.37.38,8.79.41,13.18q0,6.82,0,13.66l.7-.19c-2.86-6.15-8.73-11.72-8.31-19,0-.48-.72-.48-.75,0-.43,7.41,5.49,13.05,8.41,19.34.17.35.7.16.7-.19q.06-7.08,0-14.15a134.86,134.86,0,0,0-.51-13.64c-1-8.75-4.83-16.34-9-23.94a.38.38,0,0,0-.65.38Z" transform="translate(-26.09 -12)"/><path d="M262.42,169.79c-.67,10.3-3.06,20.36-6,30.22-.73,2.45-1.49,4.88-2.28,7.31-.36,1.14-.73,2.28-1.1,3.41l-.6,1.82c-.14.43-.37,1.88-.75,2.11l-.45-.17q-.66,0-.51-.69c0-.32,0-.65,0-1,0-.57,0-1.15,0-1.72L250.5,207q-.1-3.92-.18-7.83c-.1-5.38-.94-11.6,1.47-16.6.21-.43-.44-.81-.65-.38-2.3,4.77-1.69,10.38-1.6,15.51q.09,4.65.21,9.3l.12,4.15a11.67,11.67,0,0,0,.26,3.69c.64,1.64,2,.74,2.49-.46,1-2.67,1.8-5.46,2.67-8.19,1.79-5.61,3.47-11.27,4.84-17a115.38,115.38,0,0,0,3-19.36c0-.48-.72-.48-.75,0Z" transform="translate(-26.09 -12)"/><path d="M247.73,200.34c-.95,6.92-1.92,13.93-4.49,20.47s-6.58,12.14-10.56,17.76l.7.19q.8-12.51.4-25a.38.38,0,0,0-.75,0q.39,12.53-.4,25c0,.41.5.47.7.19,3.93-5.55,7.89-11.18,10.46-17.52,2.7-6.66,3.69-13.82,4.67-20.89.06-.48-.66-.68-.73-.2Z" transform="translate(-26.09 -12)"/><path d="M175.51,122.93c-.63,3.41-1.22,7.43,1.37,10.21,1.28,1.38,3.05,1.72,4.82,2s3.73.52,5.36-.38a3.72,3.72,0,0,0,2-4.06.37.37,0,0,0-.72.2c.5,1.94-1.43,3.42-3.15,3.68a10.48,10.48,0,0,1-3.44-.19,11,11,0,0,1-3-.76c-3.91-1.88-3.2-7.07-2.57-10.52.09-.47-.63-.67-.72-.2Z" transform="translate(-26.09 -12)"/><path d="M188.53,129.82a6.63,6.63,0,0,0,5,4.43c3.23.85,6.84.48,10.14.51,2.49,0,5.86.68,7.09-2.09a20.5,20.5,0,0,0,1.3-9.37c0-.48-.78-.49-.75,0a22.77,22.77,0,0,1-.87,8c-.52,1.71-1.35,2.61-3.18,2.7-1.34.06-2.69,0-4,0a68.54,68.54,0,0,1-8-.2c-2.54-.31-5.24-1.51-6-4.19a.37.37,0,0,0-.72.2Z" transform="translate(-26.09 -12)"/><path d="M211.6,122.42c1.39.92,2.84-.58,3.48-1.71a10.22,10.22,0,0,0,1.46-5.21c-.09-3.09-2.68-6.22-6-5.57-.48.09-.28.81.19.72,2.75-.54,4.91,2.14,5.05,4.65a8.76,8.76,0,0,1-.93,4.21c-.41.89-1.58,3.11-2.87,2.26-.4-.27-.78.38-.38.65Z" transform="translate(-26.09 -12)"/><path d="M209.87,110.18a15,15,0,0,0,14.8-3.9c.33-.35-.19-.88-.53-.54a14.22,14.22,0,0,1-14.08,3.71.38.38,0,0,0-.19.73Z" transform="translate(-26.09 -12)"/><path d="M153.05,138.77a11.17,11.17,0,0,0,10.12-1.84,27.59,27.59,0,0,0,4.25-4.39,9.1,9.1,0,0,0,2.19-4.59c.06-.48-.69-.47-.75,0a8.93,8.93,0,0,1-2.39,4.56,29.43,29.43,0,0,1-3.61,3.71,10.4,10.4,0,0,1-9.61,1.82c-.47-.14-.66.58-.2.73Z" transform="translate(-26.09 -12)"/><path d="M156,133c1.4-.24,2.8.18,4.2.06a4.3,4.3,0,0,0,2.79-1.28c1.46-1.5,1.95-3.65,3.24-5.26.31-.37-.22-.9-.53-.53-1.25,1.55-1.75,3.59-3.07,5.08a3.75,3.75,0,0,1-2.93,1.26,24.19,24.19,0,0,0-3.9-.05c-.48.08-.28.81.2.72Z" transform="translate(-26.09 -12)"/><path d="M206.27,105.83c5.19.54,11,1,15.52-2,.4-.27,0-.92-.38-.65-4.45,3-10.08,2.46-15.14,1.94-.48,0-.48.7,0,.75Z" transform="translate(-26.09 -12)"/><path d="M207.17,138.6A52.23,52.23,0,0,1,212,152.14a67.34,67.34,0,0,1,1,15.07.38.38,0,0,0,.75,0,67.92,67.92,0,0,0-1.05-15.27,52.76,52.76,0,0,0-4.9-13.72c-.22-.42-.87-.05-.65.38Z" transform="translate(-26.09 -12)"/><path d="M222.06,184.15c-6.19,2.91-12.43,5.84-19,7.72-6.85,1.95-13.92,2.31-21,2.57-.48,0-.48.77,0,.75,7.15-.26,14.28-.63,21.2-2.6,6.67-1.89,13-4.85,19.22-7.79.44-.21.06-.85-.38-.65Z" transform="translate(-26.09 -12)"/><path d="M118.14,244.57c.78,3,3.4,4.84,5.71,6.62a27.67,27.67,0,0,0,8.64,5,.37.37,0,0,0,.2-.72,26.26,26.26,0,0,1-8.07-4.61c-2.26-1.73-5-3.57-5.76-6.47a.37.37,0,0,0-.72.2Z" transform="translate(-26.09 -12)"/><path d="M128.64,246.09a40.8,40.8,0,0,0,20.85,6.13.38.38,0,0,0,0-.75,40.08,40.08,0,0,1-20.47-6c-.41-.25-.79.4-.38.65Z" transform="translate(-26.09 -12)"/><path d="M205.37,239c-1.08,2.61-2.12,5.25-3.26,7.83-.85,1.91-2,4-4.12,4.68-.46.15-.27.87.2.73,2.21-.69,3.49-2.7,4.41-4.7,1.26-2.73,2.34-5.56,3.5-8.34.18-.44-.54-.64-.73-.2Z" transform="translate(-26.09 -12)"/><path d="M123.57,33.28a43.78,43.78,0,0,1,2.58-6.54c.37-.75,2.86-6.13,3.85-5.68.58.26.55,1.93.67,2.45a5.79,5.79,0,0,0,1.1,2.22,14.66,14.66,0,0,0,4.42,3.39,15.27,15.27,0,0,1,4.95,4.44,15.73,15.73,0,0,0,3.4,3.87A8.46,8.46,0,0,0,152,38.6c1.27-.37,2.74-1.07,4-.25,2.08,1.37.69,4.27-.66,5.53a29.6,29.6,0,0,1-5.3,3.56A21.24,21.24,0,0,1,143.65,50a9.38,9.38,0,0,1-3.38.17,1.34,1.34,0,0,1-1.1-1.87c.27-.66,1-1,1.55-1.38,1.25-.81,2.12-1.82,1.92-3.4a5.47,5.47,0,0,0-2.45-3.61c-1.87-1.35-3.78-2.31-5.21-4.21a44.58,44.58,0,0,1-2.93-5.28c-.78-1.39-2.26-1.67-3.3-.32a6.28,6.28,0,0,0-.85,2.62A2.74,2.74,0,0,1,125,35a3,3,0,0,1-2.45-2.87,6.6,6.6,0,0,1,1.11-3.77,21.79,21.79,0,0,1,4.93-5.68c.37-.31-.16-.84-.53-.53a22.7,22.7,0,0,0-4.72,5.3c-1,1.61-1.89,3.53-1.41,5.47a3.39,3.39,0,0,0,6.61.2A18.2,18.2,0,0,1,129,31.2c.35-.85.39-.85,1.36-.76s.78-.09,1.09.53c.59,1.15,1.1,2.32,1.75,3.43A13.67,13.67,0,0,0,137.38,39c1.82,1.22,6.36,3.69,4,6.48-1,1.21-3.45,1.7-3.21,3.75.22,1.8,2.59,1.82,3.93,1.73a17.23,17.23,0,0,0,6.23-1.79,41.78,41.78,0,0,0,6.29-3.78c1.46-1,2.91-2.4,3.13-4.27A3.52,3.52,0,0,0,156,37.5c-2-1-4.36.72-6.44.75a8.19,8.19,0,0,1-6.59-3.4c-1.33-1.67-2.38-3.54-4.1-4.86-2.27-1.75-5.36-2.69-6.92-5.25-.63-1-.57-2.13-.94-3.25-.17-.5-.46-1.13-1-1.26-.79-.19-1.25.57-1.63,1.12a39.69,39.69,0,0,0-2.28,3.82,45.09,45.09,0,0,0-3.26,7.91.37.37,0,0,0,.72.2Z" transform="translate(-26.09 -12)"/><path d="M113.46,77.05a13.65,13.65,0,0,0-7.84,5.09c-.22.29.15.6.43.55,4-.7,8.17-.33,12.21-1s7.93-2.25,11.79-3.58,7.86-2.63,11.73-4.06,6.84-3.72,10.05-6.1l11.63-8.65c.38-.28,0-.93-.38-.64L153,66.11c-3.3,2.45-6.52,5.22-10.37,6.78S134.89,75.63,131,77a105.52,105.52,0,0,1-11.59,3.71c-4.47,1-9.08.52-13.58,1.3l.42.55a12.9,12.9,0,0,1,7.39-4.75c.47-.11.27-.83-.2-.72Z" transform="translate(-26.09 -12)"/><path d="M79.09,41.74c-.3-3.15,2.68-4.89,4.58-6.86a48.91,48.91,0,0,0,3.93-5.23,13.83,13.83,0,0,1,5.81-4.46l8.08-3.63c.43-.19.05-.84-.38-.64-2.88,1.29-5.76,2.57-8.63,3.87A13.67,13.67,0,0,0,87,29.28a39.53,39.53,0,0,1-5,6.18c-1.85,1.67-3.89,3.55-3.63,6.28,0,.47.8.48.75,0Z" transform="translate(-26.09 -12)"/><path d="M98.17,77.74l6.77-3.1a15.49,15.49,0,0,0,5.18-3.53A24.37,24.37,0,0,1,115,66.72a17.88,17.88,0,0,1,6.1-2.4c.47-.09.27-.81-.2-.72a19,19,0,0,0-10.48,6.09,18.57,18.57,0,0,1-2.6,2.57,17.13,17.13,0,0,1-2.85,1.56l-7.15,3.27c-.44.2-.06.85.38.65Z" transform="translate(-26.09 -12)"/><path d="M78.63,52a17.86,17.86,0,0,0,3.85-7.73,6.33,6.33,0,0,1,3-3.9,10.13,10.13,0,0,0,2.93-2.48c.89-1.26,1.32-2.76,2.11-4.08a10.39,10.39,0,0,1,3.43-3.36,75.55,75.55,0,0,1,9.22-4.5c.43-.21,0-.85-.38-.65a75.55,75.55,0,0,0-9.22,4.5,12.09,12.09,0,0,0-3.11,2.77,26.3,26.3,0,0,0-2.09,3.92A9.41,9.41,0,0,1,84.78,40a6.73,6.73,0,0,0-2.56,2.78c-.57,1.29-.74,2.71-1.22,4a14.33,14.33,0,0,1-2.9,4.75c-.33.35.2.88.53.53Z" transform="translate(-26.09 -12)"/><path d="M104.27,65.85,110.4,64a11.52,11.52,0,0,0,4.66-2.16c1.16-1.07,2-2.46,3.14-3.52A6.23,6.23,0,0,1,124,57a.37.37,0,0,0,.19-.72,7,7,0,0,0-4.76.38,11.22,11.22,0,0,0-3.7,3.39,9.2,9.2,0,0,1-1.92,1.87,11.46,11.46,0,0,1-3,1.22l-6.69,2a.37.37,0,0,0,.2.72Z" transform="translate(-26.09 -12)"/><path d="M73,57.08a40.32,40.32,0,0,0-.69,5.7q-.08,1.41,0,2.82a3.4,3.4,0,0,0,.33,1.94c.43.57,1.27.59,1.46,1.37a10.15,10.15,0,0,1-.11,2.52,8.1,8.1,0,0,0,.94,3.86,6.47,6.47,0,0,0,2.79,2.9c1.45.68,3.34,0,4.8-.38a58.49,58.49,0,0,0,10.36-3.58c.44-.19.06-.84-.38-.64a58.26,58.26,0,0,1-9.24,3.26c-1.55.4-4,1.38-5.46.54a6.44,6.44,0,0,1-2.68-3.55,9.52,9.52,0,0,1-.24-3.9,2.46,2.46,0,0,0-.77-2.32,2.23,2.23,0,0,1-1-1.21,4.87,4.87,0,0,1,0-1.21c0-.81,0-1.61,0-2.42a39.15,39.15,0,0,1,.67-5.5c.09-.47-.63-.68-.73-.2Z" transform="translate(-26.09 -12)"/><path d="M69.85,54a6.56,6.56,0,0,1-.59,3.57A25.7,25.7,0,0,0,68,60.16c-.66,2-.36,4.34-.35,6.4a45.48,45.48,0,0,0,.06,6.5,2.94,2.94,0,0,0,.54,1.43c.65.77,1.92.58,2.26,1.64.46,1.45-.41,3,.28,4.43a4,4,0,0,0,3.13,2.31c1,.13,2,0,2.73.81A8.37,8.37,0,0,0,78,85.19c1.16.72,2.13-.06,3-.81,2.6-2.24,6.89-.9,9-3.83.28-.39-.37-.77-.65-.38-1.67,2.29-5.21,1.6-7.55,2.74a5.79,5.79,0,0,0-1.36.94c-.89.78-1.72,1.16-2.6.19s-1.34-1.77-2.66-1.87a5,5,0,0,1-2.62-.55A3.29,3.29,0,0,1,71.16,79c0-1.13.41-2.42-.12-3.49a1.84,1.84,0,0,0-.81-.82A5,5,0,0,1,69,74.08a2,2,0,0,1-.66-1.68c-.11-2,0-4.06,0-6.08,0-2.33-.31-4.82.78-6.95.91-1.79,1.65-3.27,1.45-5.35,0-.48-.8-.48-.75,0Z" transform="translate(-26.09 -12)"/><path d="M104.85,93.3a5.12,5.12,0,0,1,2.88,1.44,7.66,7.66,0,0,1,1.48,2.7,3.4,3.4,0,0,0,1.29,1.77,4.12,4.12,0,0,0,1.26.34,1.57,1.57,0,0,1,1.11,1.13,13.82,13.82,0,0,0,.88,2.35,4.49,4.49,0,0,0,2,1.73c1,.43,2.13.16,3,.67a5,5,0,0,1,1.83,2.64c.19.44.91.25.73-.2a7.81,7.81,0,0,0-1.44-2.5,3.61,3.61,0,0,0-2.61-1,3.78,3.78,0,0,1-3-1.92c-.43-.82-.5-1.79-1-2.6a2.3,2.3,0,0,0-.67-.75,6.19,6.19,0,0,0-1.51-.43c-1-.36-1.29-1.71-1.66-2.61a5.78,5.78,0,0,0-4.43-3.49c-.47-.08-.67.64-.2.72Z" transform="translate(-26.09 -12)"/><path d="M105.55,92.59a1.27,1.27,0,0,1,.87-1.24,3.54,3.54,0,0,1,1-.19c.42,0,.84,0,1.26,0,1,0,1.92,0,2.88.06a9.32,9.32,0,0,0,4.77-.92c.91-.53,1.52-1.26,2.65-1.28a13.51,13.51,0,0,0,2.38,0c1.48-.3,2.32-2.35,3.8-2.28.48,0,.48-.73,0-.75-1.91-.09-2.59,2.28-4.5,2.35a8.59,8.59,0,0,0-3,.16c-1,.4-1.7,1.26-2.76,1.61-2.1.7-4.43.27-6.59.32-1.51,0-3.94.35-3.56,2.43.09.47.81.27.73-.2Z" transform="translate(-26.09 -12)"/><path d="M122.45,92.87A8,8,0,0,0,119,94.34a7.74,7.74,0,0,0-1.36,1.26,2.72,2.72,0,0,0-.84,1.64c0,1.11,1.18,1.15,2,1.24.55.06.91.23,1,.82a5.13,5.13,0,0,0,.24,1.51,1.57,1.57,0,0,0,1.47.81c.49,0,1.57-.22,1.7.47.09.47.81.27.72-.2-.2-1.12-1.51-1-2.35-1-.67,0-.93-.31-1-.94a3.59,3.59,0,0,0-.24-1.38c-.45-.85-1.42-.75-2.23-.88a.91.91,0,0,1-.48-.18c-.23-.27,0-.66.18-.9A6.6,6.6,0,0,1,119,95.27a7.39,7.39,0,0,1,3.65-1.68c.47-.07.27-.8-.2-.72Z" transform="translate(-26.09 -12)"/><path d="M55.88,219.75l3.52,5.05c1.12,1.6,2.38,3.17,3.36,4.86s.15,3.37.86,5a4.46,4.46,0,0,0,2.51,2,3,3,0,0,1,1.73,1.46,7.13,7.13,0,0,1,.17,2.16,2.16,2.16,0,0,0,1.41,2.21A2.42,2.42,0,0,0,72,241.33c.8-1.3.6-3.2.48-4.65a8,8,0,0,0-.5-2.41c-.18-.45-.47-.83-.69-1.27a3.22,3.22,0,0,1-.31-1.88,2.84,2.84,0,0,0-.47-1.94c-.57-.85-2-1.87-1.29-3.05.25-.41-.4-.79-.65-.37-.8,1.34.26,2.47,1.07,3.5a2.46,2.46,0,0,1,.59,1.86,5.72,5.72,0,0,0,0,1.24c.19.93.93,1.65,1.22,2.56a11.35,11.35,0,0,1,.37,3.29c0,1.16.07,2.72-1.1,3.37-2.37,1.32-1.66-2.83-2.16-3.91s-1.88-1.54-3-2.13c-2.13-1.17-1-3.33-1.63-5.21s-2.23-3.59-3.35-5.19l-4-5.77c-.28-.39-.93,0-.65.38Z" transform="translate(-26.09 -12)"/><path d="M39.62,180.82a57.5,57.5,0,0,0,.22,13c.2,2,.42,4.06.63,6.09.14,1.39,0,3.12.87,4.31a5.13,5.13,0,0,1,1.28,2.88c.06.79,0,1.59,0,2.38a4.87,4.87,0,0,0,1.23,3.35c.88.93,2.36,1.57,2.91,2.77.3.65-.15,2.93,1.36,2.35.45-.17.25-.9-.2-.72-.2.07-.28-1.44-.37-1.68a3.16,3.16,0,0,0-.67-1.07c-.8-.9-1.94-1.46-2.7-2.4-1.1-1.38-.74-3.17-.82-4.8A5.44,5.44,0,0,0,42.13,204c-1.11-1.53-.91-4.14-1.1-6s-.41-3.78-.58-5.67a53,53,0,0,1-.08-11.54c.06-.48-.69-.47-.75,0Z" transform="translate(-26.09 -12)"/><path d="M38.18,143.08c-3,1.63-2.52,5.33-3.72,8-.73,1.66-1.85,3.12-2.61,4.77a25.07,25.07,0,0,0-1.62,4.67,37.78,37.78,0,0,0-.91,10.5c.07,1.75-.19,6.63,2.76,6.36,2.78-.26.68-4.38,2.24-5.6.38-.3-.16-.83-.53-.54a2.91,2.91,0,0,0-.89,2.44,10.07,10.07,0,0,1,0,2c-.32,1.55-1.93.84-2.35-.28-.62-1.65-.46-3.91-.49-5.65a39.68,39.68,0,0,1,.29-5.56,27.18,27.18,0,0,1,3.81-10.9A14.26,14.26,0,0,0,36,148.52c.38-1.84.81-3.81,2.59-4.79a.38.38,0,0,0-.38-.65Z" transform="translate(-26.09 -12)"/><path d="M47.75,118.61c-1.56,1.1-3.11,2.23-4.63,3.38a11.84,11.84,0,0,0-3,3,4.54,4.54,0,0,0-.66,1.76c-.11.77,0,1.36-.87,1.58s-1.86,0-2.38.78.18,1.85,1.07,2c1.24.24,2.88-.79,3.9-1.38a8,8,0,0,0,1.6-1.17c.54-.53.92-1.18,1.41-1.74.63-.71,1.51-1,1.9.08a8,8,0,0,1,.26,2.24c.05,1.57-.11,3.4-1.48,4.41-1.1.81-2.91,1.33-2.5,3.08.11.47.84.27.73-.2-.26-1.07,1-1.55,1.74-2a4.06,4.06,0,0,0,1.26-1.07,5.8,5.8,0,0,0,1-3.26c.06-1.34.1-5.56-2.35-4.67-1.1.4-1.63,1.68-2.4,2.47a10.43,10.43,0,0,1-4,2.29,2.59,2.59,0,0,1-.73.17l-.55-.13-.26-.77c.07-.17.49-.23.64-.26.46-.1.93-.09,1.39-.21,1-.27,1.21-.94,1.29-1.91.16-1.88,1.72-3.18,3.11-4.25,1.61-1.24,3.24-2.42,4.9-3.59.39-.27,0-.93-.38-.65Z" transform="translate(-26.09 -12)"/><path d="M91.07,89.16,84.78,91.1A31.77,31.77,0,0,0,79.14,93c-1.86,1-3.08,2.6-5.33,2.79A23.44,23.44,0,0,1,68.05,95a12.3,12.3,0,0,0-5,0,23.7,23.7,0,0,0-5.22,2.08,23.5,23.5,0,0,0-4.52,2.7,12.15,12.15,0,0,0-2.85,3.68c-.91,1.63-1.76,3.46-3.44,4.43-1.16.67-2.62.94-3,2.38a.38.38,0,0,0,.26.46,7.64,7.64,0,0,0,8.41-2.12c1-1.24,1.51-2.95,2.72-4a1.87,1.87,0,0,1,3.16,1c.41,1.3-.17,2.68-.64,3.87-.17.45.55.65.73.2.69-1.78,1.39-4.07-.16-5.64a2.57,2.57,0,0,0-3.83.28c-1.39,1.5-1.89,3.56-3.56,4.83a6.92,6.92,0,0,1-6.63.94l.26.46c.38-1.34,2.44-1.65,3.44-2.45a10.5,10.5,0,0,0,2.36-3.12,17.18,17.18,0,0,1,2.56-3.9,17.25,17.25,0,0,1,4.76-3.09,24.64,24.64,0,0,1,5.41-2.19,14.1,14.1,0,0,1,6.06.29,16.29,16.29,0,0,0,4.71.51,7.14,7.14,0,0,0,3.86-1.71c1.93-1.52,4.11-2.08,6.42-2.8l7-2.15a.37.37,0,0,0-.2-.72Z" transform="translate(-26.09 -12)"/><path d="M95.13,92.31c.43,2-.48,4,.3,5.93a3.33,3.33,0,0,0,1.24,1.6,2.32,2.32,0,0,0,.94.34c.55.07,1.15-.2,1.67-.06.72.19.91,1.09,1.11,1.7a4.29,4.29,0,0,0,.83,1.7c.64.67,1.57.75,2.36,1.13a4.65,4.65,0,0,1,2.13,2.12c.23.43.87,0,.65-.37a5.3,5.3,0,0,0-1.66-2,14,14,0,0,0-2.37-1.06c-1.4-.67-1.07-2.53-2.07-3.54a1.93,1.93,0,0,0-1.74-.46,2,2,0,0,1-2.35-1.31c-.83-1.87.11-4-.32-6-.1-.47-.82-.27-.72.2Z" transform="translate(-26.09 -12)"/><path d="M91.13,95.45c-.46,1.68-.91,3.62.23,5.13a2.76,2.76,0,0,0,1.66,1.1,9.55,9.55,0,0,0,1.07,0c.63,0,.53.64.58,1.11.3,2.65,3.78,2.65,5.21,4.38.31.37.84-.16.53-.53a8,8,0,0,0-2.9-1.85c-1.06-.5-2-1-2.11-2.3-.05-.59-.15-1.22-.76-1.46s-1.39.08-2.06-.33c-1.76-1.07-1.17-3.45-.73-5.06a.37.37,0,0,0-.72-.2Z" transform="translate(-26.09 -12)"/><path d="M64.34,108.5c-.66-1.54.18-3.27-.48-4.82a4.25,4.25,0,0,0-1.42-1.62,7.27,7.27,0,0,1-.79-.68,2.16,2.16,0,0,1-.52-.92l1.13-1c.65-.09,1.79,1.73,2.31,2.14a6.07,6.07,0,0,0,1.37.8,12.27,12.27,0,0,0,4.54.75c3,.06,6.71.11,8.78-2.47a17.71,17.71,0,0,0,1-1.87c.52-.8,1.78-1.18,2.58-1.64a22,22,0,0,0,4.32-3.3c.35-.33-.18-.86-.53-.53a22.7,22.7,0,0,1-5.49,3.89,3.55,3.55,0,0,0-1.53,1.2,8.88,8.88,0,0,1-1.39,2.27c-1.71,1.58-4.17,1.69-6.37,1.71a13.89,13.89,0,0,1-5.66-.73,7.08,7.08,0,0,1-2.39-2,2.92,2.92,0,0,0-1.67-1,1.51,1.51,0,0,0-1.78,1.63c.07,1.47,1.47,2,2.35,3,1.35,1.46.24,3.87,1,5.62.19.44.83.06.64-.38Z" transform="translate(-26.09 -12)"/><path d="M92,224.07a50.38,50.38,0,0,0,.09,6.84c.11,1.07.45,2.4,1.6,2.76a5.39,5.39,0,0,0,1,.07c.87.1,1.43.41,1.6,1.27.23,1.11-.33,2.23-.28,3.34.08,1.88,1.54,3.27,2,5s-.35,3.9.6,5.7c.41.78,1.56,2,2.58,1.57.49-.21,1-1.11,1.23-1.55a8.51,8.51,0,0,0,.89-2.47,21.56,21.56,0,0,0,.17-5.56,22.73,22.73,0,0,1,0-3.87c.14-1.31.6-2.53.86-3.81a5.21,5.21,0,0,0-1-4.92c-.33-.35-.86.18-.53.53,2,2,.48,4.88,0,7.2a29.77,29.77,0,0,0-.07,6.47,11.33,11.33,0,0,1-1,6.05c-.27.49-.6,1.25-1.28,1.17s-1.2-1-1.4-1.56a9.68,9.68,0,0,1-.2-3.44,6.56,6.56,0,0,0-.43-2.52c-.42-1-1.12-2-1.47-3-.59-1.79.77-3.8-.29-5.47a1.85,1.85,0,0,0-1.25-.88c-.38-.08-.75.06-1.11,0-.94-.14-1.2-.75-1.38-1.56a31.39,31.39,0,0,1-.17-7.38.38.38,0,0,0-.75,0Z" transform="translate(-26.09 -12)"/><path d="M77.63,230.25c.3,1.28-.41,2.61.17,3.85a1.7,1.7,0,0,0,.63.75c.51.34,1.22.22,1.7.63.73.62.61,2,.85,2.87a4.91,4.91,0,0,0,1.51,2.29,6.62,6.62,0,0,1,2.22,2.93,17,17,0,0,0,1,3.69,17.19,17.19,0,0,0,2.37,3.08,10.65,10.65,0,0,0,2.9,2.4c.43.22.81-.42.38-.65a10.56,10.56,0,0,1-3-2.57,10.72,10.72,0,0,1-2.4-3.6,25.29,25.29,0,0,0-.82-3.33,7.36,7.36,0,0,0-1.91-2.28,4.6,4.6,0,0,1-1.65-2.69,5.88,5.88,0,0,0-.65-2.33c-.56-.82-1.53-.66-2.16-1.3-1-1-.13-2.67-.42-3.93-.11-.47-.84-.28-.73.19Z" transform="translate(-26.09 -12)"/><path d="M84,211.57l.44,9.89c0,1-.16,2.73.8,3.46a1.23,1.23,0,0,0,1.92-.48c.16-.45-.56-.65-.72-.2-.1.26-.48.24-.67.13a1,1,0,0,1-.41-.61,7.12,7.12,0,0,1-.14-1.66l-.15-3.47-.32-7.06c0-.48-.77-.48-.75,0Z" transform="translate(-26.09 -12)"/><path d="M111.3,226.59a16,16,0,0,0,.37,6.16c.62,1.87,2.78,3.79,2,5.85a.38.38,0,0,0,.36.48c1.43,0,2.17-1.85,2.79-2.89a27.57,27.57,0,0,0,2.36-4.78c1.4-3.86,1-7.75.64-11.76a26,26,0,0,1-.05-6.35c.19-1.26.4-3,1.94-3.13a2.76,2.76,0,0,0,1.44-.34c1.11-.85.56-3.17.47-4.33a36.86,36.86,0,0,0-1-6.18c-.11-.47-.83-.27-.72.2a36.54,36.54,0,0,1,1,6,9.68,9.68,0,0,1,.1,2.84c-.36,1.47-1.42.88-2.32,1.3-1.09.5-1.34,2-1.53,3a20.07,20.07,0,0,0-.21,5c.22,3.68,1,7.41.26,11.08a19.71,19.71,0,0,1-1.82,5c-.4.78-.83,1.54-1.29,2.29s-1.14,2.33-2,2.33l.37.47c.63-1.81-.58-3.36-1.43-4.87-1.28-2.27-1.15-4.83-1-7.34,0-.48-.71-.48-.75,0Z" transform="translate(-26.09 -12)"/><path d="M112.14,217.21c-.9,1.23.28,2.37,1.09,3.24a1.88,1.88,0,0,1,.54,1.93,1.6,1.6,0,0,0,0,.92,1,1,0,0,0,1.07.64.4.4,0,0,0,.37-.28c1-4.7-.48-9.54.58-14.22.64-2.83,4.58-7.79.7-10a.38.38,0,0,0-.38.65c2.25,1.3,1.06,4.14.21,5.9a14.61,14.61,0,0,0-1.53,5c-.46,4.18.59,8.38-.31,12.52l.36-.27c-.33,0-.21-1.6-.25-1.84a2.19,2.19,0,0,0-.38-.87c-.53-.78-2.26-1.78-1.46-2.9.29-.39-.36-.76-.64-.37Z" transform="translate(-26.09 -12)"/><path d="M155.44,74.2c-.91,2.52-4.15,3.25-6.16,4.66a15.37,15.37,0,0,0-4.94,5.82c-.12.23,0,.59.32.56A17,17,0,0,0,149.82,84c1.74-.73,3.21-2,5-2.69,1.51-.58,3.16-.15,4.55-1.08s2.39-2.4,4.06-3.13a13.31,13.31,0,0,1,2.54-.78c.82-.18,2.78-.79,3.48-.32,1.41,1,.11,4.1-.28,5.3a28.63,28.63,0,0,1-5.83,10.15.39.39,0,0,0,0,.53,1.43,1.43,0,0,0,1.67.17c.94-.46,1.08-1.36,1.58-2.19.82-1.37,2.74-1.26,4.11-1.78a14.19,14.19,0,0,0,3.12-1.67,18.64,18.64,0,0,0,7.62-12c.08-.48-.65-.68-.72-.2a17.93,17.93,0,0,1-6.54,11.05,13.87,13.87,0,0,1-6,2.76,3.12,3.12,0,0,0-1.87.92c-.47.55-1.25,3.4-2.45,2.46V92a29.46,29.46,0,0,0,6-10.48c.48-1.49,1.26-3.49.73-5.08s-1.84-1.35-3.12-1.14a14.94,14.94,0,0,0-5.42,1.67c-1.89,1.14-2.81,3.1-5.22,3.24a10.76,10.76,0,0,0-5.13,2,16.35,16.35,0,0,1-7,2.32l.32.56a14.8,14.8,0,0,1,6.32-6.54c1.92-1,4.07-1.91,4.86-4.11.16-.46-.56-.65-.72-.2Z" transform="translate(-26.09 -12)"/><path d="M173.33,75.88a7,7,0,0,0-.05,2.33c.09.59.28,1.27,1,1.37a1.37,1.37,0,0,0,1.34-.82,8.44,8.44,0,0,1,.81-1.91,17.72,17.72,0,0,1,1.67-1.57L180,73.54c1-.88,2.38-1.9,2.07-3.39-.1-.48-.82-.28-.73.19.24,1.14-1.28,2.14-2,2.79-1,.86-1.91,1.71-2.85,2.58a5.24,5.24,0,0,0-1,1.15c-.28.48-.31,1-.54,1.52-.09.2-.29.46-.53.45s-.34-.43-.38-.66a6.11,6.11,0,0,1,0-2.09c.09-.48-.63-.68-.72-.2Z" transform="translate(-26.09 -12)"/><path d="M247.26,102.54c1.56.5,3.35,1.11,4.42,2.43.81,1,.45,2.79,1.85,3.2.79.23,1.81-.2,2.36.62.36.55.35,1.29.66,1.86a2,2,0,0,0,.93.91c.54.26,1.12.26,1.6.68a3.48,3.48,0,0,1,.79,1.2c.91,2,1.63,4.08,2.44,6.11l.64,1.61a6.44,6.44,0,0,1,.64,1.61c.2.33.08.62-.36.85a2.49,2.49,0,0,1-.71.14,2.78,2.78,0,0,1-1.42-.3c-1.73-.85-1.14-2.76-2.35-3.93a11.19,11.19,0,0,0-2.29-1.41l-2.78-1.58a.38.38,0,0,0-.38.65l2.44,1.38a9.07,9.07,0,0,1,2.65,1.71c.49.64.45,1.51.78,2.23a3.34,3.34,0,0,0,1.07,1.31,3.56,3.56,0,0,0,3.19.52c1.49-.53.94-1.62.48-2.78l-2.31-5.82c-.53-1.32-1-3.19-2.11-4.13-.55-.45-1.27-.48-1.84-.89s-.65-1.29-1-2c-.45-1-1.24-1.15-2.26-1.21-.82,0-1.06-.39-1.3-1.16a6.07,6.07,0,0,0-.33-1,4.61,4.61,0,0,0-1.28-1.56,12.15,12.15,0,0,0-4-2c-.47-.14-.66.58-.2.73Z" transform="translate(-26.09 -12)"/><path d="M256.24,130.36a64.44,64.44,0,0,1,4.12,10.55,38.79,38.79,0,0,1,1.42,5.14,30.61,30.61,0,0,1,.27,6.2,42,42,0,0,0,.08,5.61c.13,1.17,1.72,5.88-.63,5.34-1.92-.44-1-3.38-1.2-4.74a3.51,3.51,0,0,0-.71-1.6c-.62-.83-1.95-1.71-1.41-2.94.2-.44-.45-.82-.64-.38a2.56,2.56,0,0,0,.58,2.78c.73.9,1.42,1.55,1.48,2.79,0,.85-.16,1.71,0,2.57.25,1.78,2.52,3.62,3.73,1.44.69-1.24,0-2.71-.21-4a30,30,0,0,1-.3-6.42,38.18,38.18,0,0,0-.12-5.86,29.29,29.29,0,0,0-1.23-5.07,70.49,70.49,0,0,0-4.54-11.8c-.23-.43-.87-.05-.65.37Z" transform="translate(-26.09 -12)"/><path d="M258.13,173.68l0,8.25c0,2.76.51,6-1.44,8.24-1.36,1.58-2.62,2.77-3.09,4.89s-.34,4.68-1.59,6.72l.7.19a56.91,56.91,0,0,1,1.23-20.31c.11-.47-.61-.67-.72-.2A57.34,57.34,0,0,0,251.93,202a.38.38,0,0,0,.7.19c1.18-1.94,1.16-4.17,1.55-6.34a7.13,7.13,0,0,1,1.58-3.58,22.67,22.67,0,0,0,2.18-2.51c1.29-2,.9-4.79.91-7.07l0-9a.38.38,0,0,0-.75,0Z" transform="translate(-26.09 -12)"/><path d="M235.9,214.88a44.78,44.78,0,0,1,.17,11.45c0,.46.59.45.74.1.9-2.13,2.35-3.93,3.16-6.11.92-2.52,1.79-5,2.69-7.57.77-2.16,1.77-4.45,1.57-6.79a14.34,14.34,0,0,0-.95-3c-.5-1.58.28-3,1.08-4.28.25-.41-.4-.79-.65-.38-1.1,1.82-1.75,3.43-.91,5.48a7.2,7.2,0,0,1,.5,4.53,28.07,28.07,0,0,1-1.19,3.78c-.91,2.55-1.81,5.09-2.73,7.64-.84,2.33-2.34,4.24-3.29,6.5l.73.1a45.43,45.43,0,0,0-.2-11.65c-.07-.47-.79-.27-.72.2Z" transform="translate(-26.09 -12)"/><path d="M129.2,222.61c-.76,1.87-1.54,4.1-.29,5.95a3,3,0,0,0,1.61,1.21c.85.24,1.74.53,1.85,1.54a10.87,10.87,0,0,1-.05,2.28,39.47,39.47,0,0,1-1,3.92,1.84,1.84,0,0,0,.46,1.86,2.76,2.76,0,0,0,2,.4,3,3,0,0,1,2.85.9c1,1.18,1.5,2.77,2.65,3.86,1.45,1.39,3.07.83,4.82.43,2.46-.57,4,.93,5.76,2.44a8.47,8.47,0,0,0,4.51,2.35,18.22,18.22,0,0,1,4.68,1,18.19,18.19,0,0,0,4.08,1.26,13.63,13.63,0,0,0,7.43-1c.44-.19.06-.83-.38-.64a12.68,12.68,0,0,1-7.47.84c-2.18-.43-4.1-1.68-6.31-2a11.39,11.39,0,0,1-3.8-.72,11.52,11.52,0,0,1-2.21-1.6,11.4,11.4,0,0,0-3.78-2.63,4.4,4.4,0,0,0-1.91-.16c-1.28.17-2.67,1-4,.51-1.47-.54-2.1-2.31-2.89-3.53a3.94,3.94,0,0,0-2.64-2.06c-.8-.11-1.87.29-2.62,0-1.24-.52.22-3.73.36-4.61.24-1.48.72-4.35-1.05-5.1-.5-.21-1.07-.11-1.56-.36a2.73,2.73,0,0,1-1.24-1.69c-.43-1.49.25-3.05.81-4.41.18-.44-.55-.64-.73-.2Z" transform="translate(-26.09 -12)"/><path d="M132.46,222.82c-.83,1.82.87,3.17,1.79,4.56a8.5,8.5,0,0,1,1.31,3.43,15,15,0,0,1-.21,3.73c-.12,1.35.78,2,2,2a7.42,7.42,0,0,1,2.45.12c1.08.46.49,1.87.84,2.78.57,1.46,2.42,1.48,3.73,1.32,2.2-.28,4.82-.82,6.67.79,1.42,1.24,1.88,3.34,3.68,4.18a7,7,0,0,0,2.64.46,12.21,12.21,0,0,1,4,1,14.85,14.85,0,0,0,13.83-1.59c.39-.27,0-.92-.38-.64a14.1,14.1,0,0,1-12.28,1.86c-1-.32-1.95-.8-3-1.07a19.46,19.46,0,0,0-3-.31c-2.46-.26-3-2.1-4.38-3.77a5.48,5.48,0,0,0-3.94-1.91c-1.8-.15-3.59.54-5.37.33a1.83,1.83,0,0,1-1.42-.73c-.32-.53-.11-1.23-.18-1.81a1.84,1.84,0,0,0-.65-1.28c-1-.81-2.45-.22-3.62-.47-1.38-.3-.65-2.11-.59-3.12a9,9,0,0,0-.29-3,9.07,9.07,0,0,0-1.2-2.72c-.69-1-2.43-2.41-1.79-3.8.2-.44-.45-.82-.65-.38Z" transform="translate(-26.09 -12)"/><path d="M137,224.06a10,10,0,0,1,1.7,3.14,22.27,22.27,0,0,0,.61,2.88c.48,1,1.57.83,2.48.75,1.1-.09,1.89.14,2,1.39a8.25,8.25,0,0,0,.12,1.79c.32,1.11,1.31,1.31,2.32,1s1.62-.65,2.59-.07a16.4,16.4,0,0,1,1.7,1.42,4.33,4.33,0,0,0,1.36.83c1,.35,1.89-.17,2.76.82.41.47.58,1,1.2,1.26a4,4,0,0,0,1.81.27c2.17-.05,4.35-.26,6.51-.38.48,0,.48-.78,0-.75-2.11.12-4.23.28-6.34.37a2.48,2.48,0,0,1-2.54-1.15,2.1,2.1,0,0,0-1.17-1c-.66-.2-1.37,0-2-.18a6,6,0,0,1-1.91-1.42,3.68,3.68,0,0,0-2.66-1.21,3.5,3.5,0,0,0-.79.19c-.72.23-.84.46-1.56.06s-.6-.59-.61-1.29c0-.29,0-.58,0-.87a1.87,1.87,0,0,0-1.48-1.86,6.79,6.79,0,0,0-1.8.06c-1.12.06-1.32-1-1.49-1.91a10.72,10.72,0,0,0-2.2-4.7c-.3-.38-.82.15-.53.53Z" transform="translate(-26.09 -12)"/><path d="M163.85,276.54a31.62,31.62,0,0,0,12-1,31.13,31.13,0,0,0,5.65-2.22,21.13,21.13,0,0,1,2.73-1.27,14.87,14.87,0,0,1,3.76-.56c4-.3,7.57-1.87,11.11-3.62a6,6,0,0,0,3.11-2.69c.38-.95.34-1.83,1.23-2.51a12.74,12.74,0,0,0,1.77-1.27c2.35-2.42,2.51-6.25,2.52-9.43a.38.38,0,0,0-.75,0c0,3-.11,6.62-2.3,8.9-.82.85-2.34,1.17-2.82,2.29-.37.85-.15,1.7-.81,2.47a6.88,6.88,0,0,1-2.18,1.51,29.58,29.58,0,0,1-11.35,3.63,13.26,13.26,0,0,0-4.92,1.15,47.66,47.66,0,0,1-5.47,2.43,30.85,30.85,0,0,1-13.25,1.42c-.48-.05-.47.7,0,.75Z" transform="translate(-26.09 -12)"/><path d="M155.93,273.56l14.42-.87a37.74,37.74,0,0,0,6.2-.47c1.93-.44,2.74-2.32,4.48-3.08,1.9-.83,4.06-.64,6.09-.8a23.76,23.76,0,0,0,6-1.26c1.55-.54,3.65-1.21,4.83-2.4a2.17,2.17,0,0,0,.59-1.47,2.07,2.07,0,0,1,.73-1.81c.29-.2.88-.18,1.22-.31,3-1.08,3.29-5,3.24-7.7a.38.38,0,0,0-.75,0,13.42,13.42,0,0,1-.48,4.28,4.13,4.13,0,0,1-3.27,3c-1.33.38-1.34,1.18-1.45,2.39-.17,2-3.88,3-5.5,3.54a23.56,23.56,0,0,1-6,1.07,18.84,18.84,0,0,0-5,.59c-1.6.53-2.35,1.74-3.65,2.67a6,6,0,0,1-3.33.8l-3.48.21-14.92.9c-.48,0-.49.78,0,.75Z" transform="translate(-26.09 -12)"/><path d="M129.44,259c-3.11-.22-6.7-.5-8.83-3.1a5.05,5.05,0,0,1-1-1.91,6,6,0,0,0-.36-1.3,1.57,1.57,0,0,0-1.84-.81c-2.68.67-1.6,4.16-3.53,5.46-1.47,1-3.34.44-4.81-.24-.73-.34-1.8-1.23-2.59-.54-1.29,1.11-.68,3.86-.07,5.14a6.37,6.37,0,0,0,4.34,3.52c1.26.25,2.7-.19,3.72.77a10.29,10.29,0,0,1,1.62,2.78c1.05,1.94,2.49,2.28,4.6,2.24l5.2-.12a5.52,5.52,0,0,1,2.9.39,17.57,17.57,0,0,1,1.84,1.51,6.32,6.32,0,0,0,7,.29c.41-.25,0-.9-.38-.65a5.65,5.65,0,0,1-4,.74,7.55,7.55,0,0,1-3.4-2c-1.8-1.46-4.18-1-6.36-.95-1.28,0-2.58.1-3.87.07a3.06,3.06,0,0,1-2.91-1.88c-.71-1.29-1.2-3-2.68-3.56a10.36,10.36,0,0,0-2.83-.3,5.16,5.16,0,0,1-3.14-1.68,6,6,0,0,1-1.43-2.66,5.27,5.27,0,0,1-.1-1.77c.14-1.1.51-1.47,1.55-1,1.75.88,3.77,1.66,5.68.78a3.38,3.38,0,0,0,1.72-1.79c.49-1.14.36-2.69,1.44-3.49.55-.42.6-.39,1.2,0s.55.55.73,1.23a5.59,5.59,0,0,0,.61,1.42,7,7,0,0,0,2.16,2.22c2.28,1.53,5.12,1.73,7.78,1.92.48,0,.48-.72,0-.75Z" transform="translate(-26.09 -12)"/><path d="M197.43,247.65c3.33-2.47,1.87-7.27,4.43-10.2a3.69,3.69,0,0,1,2.9-1.17,3,3,0,0,0,2.14-.8c.86-.91,1.09-3.5,2.51-3.64l-.36-.47a2.31,2.31,0,0,0,1.24,2.41,3.78,3.78,0,0,0,3.31-.16,7.28,7.28,0,0,0,4.5-5.62c.05-.48-.7-.47-.75,0a6.07,6.07,0,0,1-2.76,4.21,6.71,6.71,0,0,1-2.23,1c-1.11.24-2.8-.23-2.59-1.69a.38.38,0,0,0-.36-.48c-1.53.15-1.88,1.66-2.43,2.85a2.48,2.48,0,0,1-2.55,1.6,4.25,4.25,0,0,0-2.42.75c-3.5,2.6-1.55,8.19-5,10.71-.39.29,0,.94.38.65Z" transform="translate(-26.09 -12)"/><path d="M224.52,98a3.91,3.91,0,0,0,.09-1.32c-.05-.43-.26-3.44,1.12-2a4.65,4.65,0,0,1,.64,1.37,5.89,5.89,0,0,0,.78,1.24c.84,1,1.83,1.87,1.5,3.34-.19.81-.6,1.75.06,2.46a1.9,1.9,0,0,0,1,.49,3.47,3.47,0,0,1,1.83,1,19.28,19.28,0,0,1,2.28,3.74c1.48,2.67,3.16,5.64,2.39,8.8-.12.47.61.67.72.2.83-3.38-.87-6.51-2.47-9.38a17.5,17.5,0,0,0-2.5-4,3.67,3.67,0,0,0-1.54-1c-.53-.16-1.2-.08-1.31-.92a4.92,4.92,0,0,1,.32-1.39,3.32,3.32,0,0,0-.92-2.95A12.67,12.67,0,0,1,227.21,96a16,16,0,0,0-.85-1.83,1.34,1.34,0,0,0-1.93-.39c-1.28.94-.33,2.76-.64,4a.38.38,0,0,0,.73.2Z" transform="translate(-26.09 -12)"/><path d="M232.91,115.88a4,4,0,0,0-1.06-4.73c-.42-.34-1-.53-1.2-1.06s-.3-1.12-.47-1.66a24,24,0,0,0-1.38-3.4c-.22-.44-.86-.06-.65.37a22.42,22.42,0,0,1,1.27,3.14c.28.85.35,2,1.07,2.58.35.29.76.46,1.08.78a3.26,3.26,0,0,1,.71,1,3.21,3.21,0,0,1,0,2.56c-.2.44.45.82.65.38Z" transform="translate(-26.09 -12)"/><path d="M137.64,190.13c.12,1.9.09,3.88.38,5.76a2.17,2.17,0,0,0,1.72,2.08,10.35,10.35,0,0,0,1.76,0c1.33,0,1.72.9,1.82,2.07.11,1.36,0,2.63.85,3.8,1.91,2.74,5.76,2.82,7.88,5.33,1.9,2.26,3,5.17,6.27,5.66,3.64.56,6.71-1.81,9.33-4,.37-.31-.16-.84-.53-.53-3,2.5-7.76,5.88-11.41,2.49-1.23-1.14-2-2.71-3-4a11.33,11.33,0,0,0-4.44-2.94c-1.94-.87-3.87-2-4.11-4.31-.12-1.16.1-2.6-.71-3.57-1.13-1.33-2.85-.1-4-1-.93-.69-.73-2.28-.8-3.35l-.21-3.46c0-.48-.78-.49-.75,0Z" transform="translate(-26.09 -12)"/><path d="M162,209.2a5.11,5.11,0,0,1-5.54-1c-1.09-1.1-1.57-2.65-2.38-3.94a4.59,4.59,0,0,0-2.37-2.06,10.17,10.17,0,0,0-2.34-.26,2.35,2.35,0,0,1-2.42-2.34c-.2-2.07.95-5.77-1.93-6.54-1.64-.43-3.72.84-4.11-1.56-.33-2-.42-5.67,2.49-5.74a.38.38,0,0,0,0-.75c-3.27.08-3.61,3.78-3.27,6.25.16,1.19.44,2.26,1.76,2.49,1.56.27,3.56-.68,4.22,1.38.72,2.24-1.07,5.9,1.7,7.22,1.55.74,3.39,0,4.77,1.21,1.07,1,1.56,2.48,2.27,3.7a5.89,5.89,0,0,0,7.52,2.62c.45-.18.06-.83-.37-.64Z" transform="translate(-26.09 -12)"/><path d="M161.25,98.22A110.11,110.11,0,0,1,138.89,107c-3.71,1-7.46,1.66-11.22,2.42-2.38.48-5,1.38-5.84,3.91a.37.37,0,0,0,.46.46c4.83-1.74,9.44,2.28,13.64,4.07,4.88,2.08,10.25,3.21,15.43,4.26,2.67.55,5.37,1,8.07,1.41a65.64,65.64,0,0,0,7.65.89,3.77,3.77,0,0,0,3.89-2.79c.84-2.13,1.65-4.26,2.56-6.37,1.92-4.5,4.06-9.17,4.35-14.12,0-.49-.72-.48-.75,0-.26,4.46-2.11,8.72-3.84,12.79-.8,1.86-1.62,3.72-2.35,5.62a14.69,14.69,0,0,1-1.2,2.92c-1,1.48-2.7,1.22-4.22,1.06A144.6,144.6,0,0,1,149.9,121c-4.94-1.06-10.13-2.15-14.72-4.35-4-1.92-8.42-5.31-13.09-3.63l.46.46c1-3.1,5.18-3.35,7.87-3.84,3.66-.68,7.29-1.54,10.86-2.58a111.41,111.41,0,0,0,20.35-8.22c.43-.23.05-.87-.38-.65Z" transform="translate(-26.09 -12)"/><path d="M159.88,98.92c11.07-1.84,20.44-8.34,29.78-14.14a335.31,335.31,0,0,1,32-17.21c6.27-3,12.59-5.91,18.91-8.81l-.55-.42c-.79,3.26-3.42,5.43-5.7,7.7a32.85,32.85,0,0,0-5.73,7.9c-3.57,6.68-6.51,13.74-9.69,20.61-.83,1.78-1.65,3.57-2.48,5.35-.49,1-.91,2.16-2.24,2.32a10.4,10.4,0,0,1-3.22-.45,39.56,39.56,0,0,1-9-3.21,33.11,33.11,0,0,1-3.79-2c-.72-.46-1.27-1.13-1.95-1.65a12.46,12.46,0,0,0-6.72-2.72c-5.66-.4-10.62,3.54-12.34,8.79-.16.46.57.65.72.2,1.78-5.42,7.3-9.3,13.07-8a14.07,14.07,0,0,1,6.2,3.59,14.75,14.75,0,0,0,3,1.7c1.32.67,2.66,1.32,4,1.9a32,32,0,0,0,9.29,2.57,3,3,0,0,0,2.75-1,9.23,9.23,0,0,0,1.14-2.15l1.45-3.12c3.22-6.95,6.29-14,9.72-20.85a35.11,35.11,0,0,1,6.68-9.55c2.3-2.27,4.83-4.5,5.62-7.77a.38.38,0,0,0-.55-.42c-11.06,5.07-22.12,10.14-32.9,15.78-5.31,2.77-10.56,5.69-15.69,8.79-4.8,2.91-9.47,6-14.36,8.78a54.16,54.16,0,0,1-17.59,6.72c-.47.08-.27.81.2.73Z" transform="translate(-26.09 -12)"/><path d="M130.52,113.81a17.77,17.77,0,0,0-9.49,9c-.21.43.44.81.64.38a17.11,17.11,0,0,1,9-8.63c.44-.18.25-.91-.2-.73Z" transform="translate(-26.09 -12)"/><path d="M133.92,117.23a28.55,28.55,0,0,0-9.51,10.83c-.22.43.43.81.65.38a27.69,27.69,0,0,1,9.24-10.56c.4-.27,0-.92-.38-.65Z" transform="translate(-26.09 -12)"/><path d="M145.09,119.12A29.28,29.28,0,0,1,146.2,112l-.62.17c1.51,1.78,3.78,2.48,6,3.08A.37.37,0,0,0,152,115a63,63,0,0,1,3.83-12.67c.18-.44-.54-.64-.73-.2a63.62,63.62,0,0,0-3.83,12.67l.46-.26c-2-.57-4.19-1.2-5.62-2.89a.38.38,0,0,0-.63.16,30,30,0,0,0-1.14,7.28.38.38,0,0,0,.75,0Z" transform="translate(-26.09 -12)"/><path d="M151.39,121.33l.59-1.87a3.13,3.13,0,0,1,.29-.94c0-.25.18-.32.48-.19.3-.12.49,0,.56.24.53.51.66,1.2,1.59,1.05a2.44,2.44,0,0,0,1.49-1.31,24.55,24.55,0,0,0,1.61-3.25,80.89,80.89,0,0,0,2.26-8c.81-2.74,1.73-5.45,2.74-8.12.17-.45-.55-.65-.72-.2q-1.46,3.81-2.62,7.71c-.78,2.65-1.25,5.45-2.24,8a20.46,20.46,0,0,1-1.75,3.58l-.33.43-1.24,0c-.13-.08-.27-.48-.38-.62a1.65,1.65,0,0,0-.74-.59,1,1,0,0,0-1.25.58,19.65,19.65,0,0,0-1.06,3.31c-.15.46.57.66.72.2Z" transform="translate(-26.09 -12)"/><path d="M201,97.66,206,85.06l-.68.09L209.05,91a.38.38,0,0,0,.69-.08,178.48,178.48,0,0,0,5.55-19.38c.11-.47-.62-.67-.72-.2A178.52,178.52,0,0,1,209,90.76l.69-.09L206,84.77a.39.39,0,0,0-.69.09l-5.09,12.61c-.18.44.55.64.73.19Z" transform="translate(-26.09 -12)"/><path d="M206.28,100.75a12.51,12.51,0,0,1,1.77-7.16l-.68-.09a12.18,12.18,0,0,0,3,5.86.38.38,0,0,0,.59-.07c2.54-4.51,4-9.47,5.38-14.43,1.51-5.47,3-10.94,4.44-16.45a.38.38,0,0,0-.73-.2c-1.34,5.37-2.84,10.69-4.31,16-1.4,5-2.84,10.1-5.43,14.68l.59-.08a11.36,11.36,0,0,1-2.83-5.53.39.39,0,0,0-.69-.09,13.31,13.31,0,0,0-1.87,7.54c0,.48.77.48.75,0Z" transform="translate(-26.09 -12)"/></svg>